<?xml version="1.0" encoding="utf-8"?>
<!-- Generator: Adobe Illustrator 27.5.0, SVG Export Plug-In . SVG Version: 6.00 Build 0)  -->
<svg version="1.1" xmlns="http://www.w3.org/2000/svg" xmlns:xlink="http://www.w3.org/1999/xlink" x="0px" y="0px"
	 viewBox="0 0 750 500" style="enable-background:new 0 0 750 500;" xml:space="preserve">
<g id="BACKGROUND">
	<rect style="fill:#F7EEE4;" width="750" height="500"/>
</g>
<g id="OBJECTS">
	<g>
		<defs>
			<rect id="SVGID_1_" width="750" height="500"/>
		</defs>
		<clipPath id="SVGID_00000024687177213016968750000015903889577813459124_">
			<use xlink:href="#SVGID_1_"  style="overflow:visible;"/>
		</clipPath>
		
			<circle style="clip-path:url(#SVGID_00000024687177213016968750000015903889577813459124_);fill:#77C9C3;" cx="0" cy="500" r="105.344"/>
		
			<circle style="clip-path:url(#SVGID_00000024687177213016968750000015903889577813459124_);fill:#CBD6C8;" cx="750" cy="0" r="134.042"/>
		<path style="clip-path:url(#SVGID_00000024687177213016968750000015903889577813459124_);fill:#CBD6C8;" d="M-49.645,296.751
			L-49.645,296.751c-11.494-11.494-11.494-30.302,0-41.795l152.207-152.207c11.494-11.494,30.302-11.494,41.795,0l0,0
			c11.494,11.494,11.494,30.302,0,41.795L-7.85,296.751C-19.344,308.245-38.151,308.245-49.645,296.751z"/>
		<path style="clip-path:url(#SVGID_00000024687177213016968750000015903889577813459124_);fill:#294420;" d="M-85.048,285.523
			L-85.048,285.523c-6.98-6.98-6.98-18.403,0-25.383L66.045,109.047c6.98-6.98,18.403-6.98,25.383,0l0,0
			c6.98,6.98,6.98,18.403,0,25.383L-59.664,285.523C-66.645,292.504-78.067,292.504-85.048,285.523z"/>
		<path style="clip-path:url(#SVGID_00000024687177213016968750000015903889577813459124_);fill:#FD9F9D;" d="M45.739,80.987V58.798
			c0-6.6,5.4-12,12-12h22.189c6.6,0,12,5.4,12,12v22.189c0,6.6-5.4,12-12,12H57.739C51.139,92.987,45.739,87.587,45.739,80.987z"/>
		
			<circle style="clip-path:url(#SVGID_00000024687177213016968750000015903889577813459124_);fill:none;stroke:#294420;stroke-width:2;stroke-miterlimit:10;" cx="110.634" cy="28.092" r="9.272"/>
		
			<circle style="clip-path:url(#SVGID_00000024687177213016968750000015903889577813459124_);fill:#77C9C3;" cx="27.034" cy="111.692" r="9.272"/>
		
			<path style="clip-path:url(#SVGID_00000024687177213016968750000015903889577813459124_);fill:none;stroke:#77C9C3;stroke-width:2;stroke-miterlimit:10;" d="
			M196.752,179.587c0,32.542-26.38,58.922-58.922,58.922s-58.922-26.38-58.922-58.922"/>
		
			<path style="clip-path:url(#SVGID_00000024687177213016968750000015903889577813459124_);fill:none;stroke:#77C9C3;stroke-width:2;stroke-miterlimit:10;" d="
			M607.692,333.078c23.01,23.01,60.318,23.01,83.328,0c23.01-23.01,23.01-60.318,0-83.328"/>
		<path style="clip-path:url(#SVGID_00000024687177213016968750000015903889577813459124_);fill:#77C9C3;" d="M139.076,204.198
			L139.076,204.198c-1.662-1.662-1.662-4.382,0-6.044l58.02-58.02c1.662-1.662,4.382-1.662,6.044,0v0
			c1.662,1.662,1.662,4.382,0,6.044l-58.02,58.02C143.458,205.86,140.738,205.86,139.076,204.198z"/>
		<path style="clip-path:url(#SVGID_00000024687177213016968750000015903889577813459124_);fill:#77C9C3;" d="M849.94,261.829
			l-35.028-35.028L630.34,411.372l0,0c19.345,19.345,50.711,19.345,70.056,0L849.94,261.829z"/>
		<path style="clip-path:url(#SVGID_00000024687177213016968750000015903889577813459124_);fill:#FD9F9D;" d="M561.631,480.081
			c-18.973-18.973-18.974-49.735,0-68.709c18.973-18.974,49.735-18.974,68.709,0L561.631,480.081z"/>
		
			<circle style="clip-path:url(#SVGID_00000024687177213016968750000015903889577813459124_);fill:none;stroke:#294420;stroke-width:2;stroke-miterlimit:10;" cx="649.202" cy="291.26" r="29.679"/>
		<path style="clip-path:url(#SVGID_00000024687177213016968750000015903889577813459124_);fill:#294420;" d="M724.985,409.687
			L724.985,409.687c-1.76-1.76-4.64-1.76-6.399,0l-69.721,69.721c-1.76,1.76-1.76,4.639,0,6.399l0,0c1.76,1.76,4.64,1.76,6.399,0
			l69.721-69.721C726.744,414.326,726.744,411.447,724.985,409.687z"/>
		<path style="clip-path:url(#SVGID_00000024687177213016968750000015903889577813459124_);fill:#CBD6C8;" d="M767.255,396.045
			L767.255,396.045c-1.76-1.76-4.64-1.76-6.399,0l-69.721,69.721c-1.76,1.76-1.76,4.64,0,6.399l0,0c1.76,1.76,4.64,1.76,6.399,0
			l69.721-69.721C769.015,400.685,769.015,397.805,767.255,396.045z"/>
		<path style="clip-path:url(#SVGID_00000024687177213016968750000015903889577813459124_);fill:#77C9C3;" d="M656.948,299.006
			c4.278-4.278,4.278-11.215,0-15.493c-4.278-4.278-11.215-4.278-15.493,0c-4.278,4.278-4.278,11.215,0,15.493
			C645.733,303.284,652.67,303.284,656.948,299.006z"/>
		
			<circle style="clip-path:url(#SVGID_00000024687177213016968750000015903889577813459124_);fill:#294420;" cx="547.485" cy="432.254" r="12.384"/>
	</g>
</g>
</svg>
